<?xml version="1.0" encoding="utf-8"?>
<!-- Generator: Adobe Illustrator 22.0.1, SVG Export Plug-In . SVG Version: 6.00 Build 0)  -->
<svg version="1.1" id="Layer_1" xmlns="http://www.w3.org/2000/svg" xmlns:xlink="http://www.w3.org/1999/xlink" x="0px" y="0px"
	 viewBox="0 0 89.7 89.7" style="enable-background:new 0 0 89.7 89.7;" xml:space="preserve">
<style type="text/css">
	.st0{fill:#353535;}
</style>
<title>iWish icon</title>
<path class="st0" d="M29.1,58.5c3.1,0,5.6-2.5,5.6-5.6c0-0.6-0.1-1.3-0.3-1.9L28,32.6c-1-2.9-4.3-4.5-7.2-3.4
	c-2.9,1-4.5,4.2-3.5,7.2c0,0,0,0,0,0l6.4,18.4C24.6,57,26.7,58.5,29.1,58.5z"/>
<path class="st0" d="M40.6,53.3c0.6,0,1.3-0.1,1.9-0.3c2.9-1,4.5-4.2,3.5-7.2l-7.2-20.4c-1-2.9-4.2-4.5-7.2-3.5
	c-2.9,1-4.5,4.2-3.5,7.2l7.2,20.4C36.1,51.8,38.3,53.3,40.6,53.3z"/>
<path class="st0" d="M62.4,14.4c1.4-2.7,0.4-6.1-2.3-7.6c-2.7-1.5-6.2-0.4-7.6,2.3c0,0,0,0,0,0l-0.2,0.4l5,14.5L62.4,14.4z"/>
<path class="st0" d="M67.1,54l-3-7.3l-1-2.4l0,0L63,44.2l-1.9-4.4c-1.2-2.9-4.5-4.2-7.4-3c-2.9,1.2-4.2,4.5-3,7.4l4.8,11.4l-1.2-0.2
	c-3.3-0.6-9.3,2.3-10.9,8.1l-1.2-0.3c1.5-5.5,6.8-9.1,11-9.1h0.2l-3.9-9.3c-1.5-3.5,0.2-7.5,3.7-9c2.4-1,5.1-0.6,7.1,1.1L51.5,11
	l0,0l-0.6-1.6l0,0c-0.8-2.3-2.9-3.8-5.3-3.8c-3.1,0-5.6,2.5-5.6,5.6c0,0.6,0.1,1.2,0.3,1.8l8.6,24.9l-1.2,0.4l-4.2-12.2l-1.9,3.5
	l5.5,15.7c1.3,3.6-0.6,7.5-4.2,8.8c-0.7,0.3-1.5,0.4-2.3,0.4c-1.7,0-3.4-0.7-4.7-1.8c0.1,3.8-2.9,6.9-6.7,7c-3,0.1-5.7-1.8-6.7-4.6
	l-2.5-7.2L19,48.3c5.2,18.7,10.5,22.2,12.6,30v6.2h26.3c1.5-13.8,9.8-15.9,9.8-26c0-1-0.1-2-0.3-3C67.4,55,67.3,54.5,67.1,54z"/>
<path class="st0" d="M44.8,0C20.1,0,0,20.1,0,44.8s20.1,44.8,44.8,44.8s44.8-20.1,44.8-44.8C89.7,20.1,69.6,0,44.8,0z M44.8,82.5
	C24,82.4,7.3,65.5,7.4,44.7C7.5,25.9,21.3,10.1,39.8,7.5c0.8-1.3,2-2.3,3.5-2.8c3.1-1.1,6.6,0.2,8.2,3.1l0.3,0.1
	c1.3-1.9,3.4-3,5.6-3c1.1,0,2.2,0.3,3.2,0.8c2.6,1.3,4,4.1,3.7,7c17.8,10.7,23.6,33.9,12.8,51.7C70.4,75.6,58.1,82.6,44.8,82.5z"/>
</svg>
