<svg id="Layer_1" data-name="Layer 1" xmlns="http://www.w3.org/2000/svg" viewBox="0 0 89.7 89.7"><defs><style>.cls-1{fill:#353535;}</style></defs><title>Artboard 1</title><path class="cls-1" d="M29.1,58.5a5.59,5.59,0,0,0,5.6-5.6,6.28,6.28,0,0,0-.3-1.9L28,32.6a5.6,5.6,0,0,0-7.2-3.4,5.7,5.7,0,0,0-3.5,7.2h0l6.4,18.4A5.86,5.86,0,0,0,29.1,58.5Z"/><path class="cls-1" d="M40.6,53.3a6.28,6.28,0,0,0,1.9-.3A5.7,5.7,0,0,0,46,45.8L38.8,25.4a5.66,5.66,0,0,0-10.7,3.7l7.2,20.4A5.68,5.68,0,0,0,40.6,53.3Z"/><path class="cls-1" d="M62.4,14.4a5.72,5.72,0,0,0-2.3-7.6,5.6,5.6,0,0,0-7.6,2.3h0l-.2.4,5,14.5Z"/><path class="cls-1" d="M67.1,54l-3-7.3-1-2.4h0l-.1-.1-1.9-4.4a5.65,5.65,0,1,0-10.4,4.4l4.8,11.4-1.2-.2c-3.3-.6-9.3,2.3-10.9,8.1l-1.2-.3c1.5-5.5,6.8-9.1,11-9.1h.2l-3.9-9.3a6.88,6.88,0,0,1,10.8-7.9L51.5,11h0l-.6-1.6h0A5.6,5.6,0,0,0,40,11.2a5.66,5.66,0,0,0,.3,1.8l8.6,24.9-1.2.4L43.5,26.1l-1.9,3.5,5.5,15.7a6.87,6.87,0,0,1-4.2,8.8,5.87,5.87,0,0,1-2.3.4,7.43,7.43,0,0,1-4.7-1.8,6.83,6.83,0,0,1-6.7,7,6.91,6.91,0,0,1-6.7-4.6L20,47.9l-1,.4c5.2,18.7,10.5,22.2,12.6,30v6.2H57.9c1.5-13.8,9.8-15.9,9.8-26a15.26,15.26,0,0,0-.3-3A4,4,0,0,0,67.1,54Z"/><path class="cls-1" d="M44.8,0A44.8,44.8,0,1,0,89.6,44.8,44.85,44.85,0,0,0,44.8,0Zm0,82.5a37.69,37.69,0,0,1-5-75,6.5,6.5,0,0,1,3.5-2.8,6.8,6.8,0,0,1,8.2,3.1l.3.1a6.8,6.8,0,0,1,5.6-3,7.22,7.22,0,0,1,3.2.8,6.93,6.93,0,0,1,3.7,7A37.58,37.58,0,0,1,44.8,82.5Z"/></svg>